<?xml version="1.0" encoding="UTF-8" standalone="no"?>
<svg
   xmlns:dc="http://purl.org/dc/elements/1.1/"
   xmlns:cc="http://creativecommons.org/ns#"
   xmlns:rdf="http://www.w3.org/1999/02/22-rdf-syntax-ns#"
   xmlns:svg="http://www.w3.org/2000/svg"
   xmlns="http://www.w3.org/2000/svg"
   xmlns:sodipodi="http://sodipodi.sourceforge.net/DTD/sodipodi-0.dtd"
   xmlns:inkscape="http://www.inkscape.org/namespaces/inkscape"
   width="590.31256"
   height="502.66446"
   viewBox="0 0 156.18686 132.99663"
   version="1.1"
   id="svg8"
   inkscape:version="1.0.2-2 (e86c870879, 2021-01-15)"
   sodipodi:docname="logo_4.svg"
   inkscape:export-filename="C:\Users\Connor\Desktop\logo_4.png"
   inkscape:export-xdpi="96"
   inkscape:export-ydpi="96">
  <defs
     id="defs2">
    <inkscape:path-effect
       effect="bspline"
       id="path-effect1534"
       is_visible="true"
       lpeversion="1"
       weight="33.333333"
       steps="2"
       helper_size="0"
       apply_no_weight="true"
       apply_with_weight="true"
       only_selected="false" />
    <inkscape:path-effect
       effect="bspline"
       id="path-effect1510"
       is_visible="true"
       lpeversion="1"
       weight="33.333333"
       steps="2"
       helper_size="0"
       apply_no_weight="true"
       apply_with_weight="true"
       only_selected="false" />
    <inkscape:path-effect
       effect="bspline"
       id="path-effect1487"
       is_visible="true"
       lpeversion="1"
       weight="33.333333"
       steps="2"
       helper_size="0"
       apply_no_weight="true"
       apply_with_weight="true"
       only_selected="false" />
    <inkscape:path-effect
       effect="fillet_chamfer"
       id="path-effect466"
       is_visible="true"
       lpeversion="1"
       satellites_param="F,0,0,1,0,3,0,1 @ F,0,0,1,0,3,0,1 @ F,0,0,1,0,3,0,1 @ F,0,0,1,0,3,0,1"
       unit="px"
       method="auto"
       mode="F"
       radius="3"
       chamfer_steps="1"
       flexible="false"
       use_knot_distance="true"
       apply_no_radius="true"
       apply_with_radius="true"
       only_selected="false"
       hide_knots="false" />
    <inkscape:path-effect
       effect="fillet_chamfer"
       id="path-effect454"
       is_visible="true"
       lpeversion="1"
       satellites_param="F,0,0,1,0,3,0,1 @ F,0,0,1,0,3,0,1 @ F,0,0,1,0,3,0,1 @ F,0,0,1,0,3,0,1"
       unit="px"
       method="auto"
       mode="F"
       radius="3"
       chamfer_steps="1"
       flexible="false"
       use_knot_distance="true"
       apply_no_radius="true"
       apply_with_radius="true"
       only_selected="false"
       hide_knots="false" />
    <inkscape:path-effect
       effect="fillet_chamfer"
       id="path-effect442"
       is_visible="true"
       lpeversion="1"
       satellites_param="F,0,0,1,0,3,0,1 @ F,0,0,1,0,3,0,1 @ F,0,0,1,0,3,0,1 @ F,0,0,1,0,3,0,1"
       unit="px"
       method="auto"
       mode="F"
       radius="3"
       chamfer_steps="1"
       flexible="false"
       use_knot_distance="true"
       apply_no_radius="true"
       apply_with_radius="true"
       only_selected="false"
       hide_knots="false" />
    <inkscape:path-effect
       effect="fillet_chamfer"
       id="path-effect418"
       is_visible="true"
       lpeversion="1"
       satellites_param="F,0,0,1,0,3,0,1 @ F,0,0,1,0,3,0,1 @ F,0,0,1,0,3,0,1 @ F,0,0,1,0,3,0,1"
       unit="px"
       method="auto"
       mode="F"
       radius="3"
       chamfer_steps="1"
       flexible="false"
       use_knot_distance="true"
       apply_no_radius="true"
       apply_with_radius="true"
       only_selected="false"
       hide_knots="false" />
    <inkscape:path-effect
       effect="fillet_chamfer"
       id="path-effect394"
       is_visible="true"
       lpeversion="1"
       satellites_param="F,0,0,1,0,8,0,1 @ F,0,0,1,0,8,0,1 @ F,0,0,1,0,8,0,1 @ F,0,0,1,0,8,0,1"
       unit="px"
       method="auto"
       mode="F"
       radius="8"
       chamfer_steps="1"
       flexible="false"
       use_knot_distance="true"
       apply_no_radius="true"
       apply_with_radius="true"
       only_selected="false"
       hide_knots="false" />
    <inkscape:path-effect
       effect="fillet_chamfer"
       id="path-effect382"
       is_visible="true"
       lpeversion="1"
       satellites_param="F,0,0,1,0,7,0,1 @ F,0,0,1,0,7,0,1 @ F,0,0,1,0,7,0,1 @ F,0,0,1,0,7,0,1"
       unit="px"
       method="auto"
       mode="F"
       radius="7"
       chamfer_steps="1"
       flexible="false"
       use_knot_distance="true"
       apply_no_radius="true"
       apply_with_radius="true"
       only_selected="false"
       hide_knots="false" />
    <inkscape:path-effect
       effect="fillet_chamfer"
       id="path-effect358"
       is_visible="true"
       lpeversion="1"
       satellites_param="F,0,0,1,0,6,0,1 @ F,0,0,1,0,6,0,1 @ F,0,0,1,0,6,0,1 @ F,0,0,1,0,6,0,1"
       unit="px"
       method="auto"
       mode="F"
       radius="6"
       chamfer_steps="1"
       flexible="false"
       use_knot_distance="true"
       apply_no_radius="true"
       apply_with_radius="true"
       only_selected="false"
       hide_knots="false" />
    <inkscape:path-effect
       effect="fillet_chamfer"
       id="path-effect346"
       is_visible="true"
       lpeversion="1"
       satellites_param="F,0,0,1,0,9,0,1 @ F,0,0,1,0,9,0,1 @ F,0,0,1,0,9,0,1 @ F,0,0,1,0,9,0,1"
       unit="px"
       method="auto"
       mode="F"
       radius="9"
       chamfer_steps="1"
       flexible="false"
       use_knot_distance="true"
       apply_no_radius="true"
       apply_with_radius="true"
       only_selected="false"
       hide_knots="false" />
    <inkscape:path-effect
       effect="fillet_chamfer"
       id="path-effect220"
       is_visible="true"
       lpeversion="1"
       satellites_param="F,0,0,1,0,7,0,1 @ F,0,0,1,0,7,0,1 @ F,0,0,1,0,7,0,1 @ F,0,0,1,0,7,0,1"
       unit="px"
       method="auto"
       mode="F"
       radius="7"
       chamfer_steps="1"
       flexible="false"
       use_knot_distance="true"
       apply_no_radius="true"
       apply_with_radius="true"
       only_selected="false"
       hide_knots="false" />
    <inkscape:path-effect
       effect="fillet_chamfer"
       id="path-effect196"
       is_visible="true"
       lpeversion="1"
       satellites_param="F,0,0,1,0,6,0,1 @ F,0,0,1,0,6,0,1 @ F,0,0,1,0,6,0,1 @ F,0,0,1,0,6,0,1"
       unit="px"
       method="auto"
       mode="F"
       radius="6"
       chamfer_steps="1"
       flexible="false"
       use_knot_distance="true"
       apply_no_radius="true"
       apply_with_radius="true"
       only_selected="false"
       hide_knots="false" />
    <inkscape:path-effect
       effect="fillet_chamfer"
       id="path-effect184"
       is_visible="true"
       lpeversion="1"
       satellites_param="F,0,0,1,0,7,0,1 @ F,0,0,1,0,7,0,1 @ F,0,0,1,0,7,0,1 @ F,0,0,1,0,7,0,1"
       unit="px"
       method="auto"
       mode="F"
       radius="7"
       chamfer_steps="1"
       flexible="false"
       use_knot_distance="true"
       apply_no_radius="true"
       apply_with_radius="true"
       only_selected="false"
       hide_knots="false" />
    <inkscape:path-effect
       effect="fillet_chamfer"
       id="path-effect172"
       is_visible="true"
       lpeversion="1"
       satellites_param="F,0,0,1,0,13,0,1 @ F,0,0,1,0,13,0,1 @ F,0,0,1,0,13,0,1 @ F,0,0,1,0,13,0,1"
       unit="px"
       method="auto"
       mode="F"
       radius="13"
       chamfer_steps="1"
       flexible="false"
       use_knot_distance="true"
       apply_no_radius="true"
       apply_with_radius="true"
       only_selected="false"
       hide_knots="false" />
    <inkscape:path-effect
       effect="fillet_chamfer"
       id="path-effect160"
       is_visible="true"
       lpeversion="1"
       satellites_param="F,0,0,1,0,8,0,1 @ F,0,0,1,0,8,0,1 @ F,0,0,1,0,8,0,1 @ F,0,0,1,0,8,0,1"
       unit="px"
       method="auto"
       mode="F"
       radius="8"
       chamfer_steps="1"
       flexible="false"
       use_knot_distance="true"
       apply_no_radius="true"
       apply_with_radius="true"
       only_selected="false"
       hide_knots="false" />
    <inkscape:path-effect
       effect="fillet_chamfer"
       id="path-effect148"
       is_visible="true"
       lpeversion="1"
       satellites_param="F,0,0,1,0,10,0,1 @ F,0,0,1,0,10,0,1 @ F,0,0,1,0,10,0,1 @ F,0,0,1,0,10,0,1"
       unit="px"
       method="auto"
       mode="F"
       radius="10"
       chamfer_steps="1"
       flexible="false"
       use_knot_distance="true"
       apply_no_radius="true"
       apply_with_radius="true"
       only_selected="false"
       hide_knots="false" />
    <inkscape:path-effect
       effect="fillet_chamfer"
       id="path-effect136"
       is_visible="true"
       lpeversion="1"
       satellites_param="F,0,0,1,0,17,0,1 @ F,0,0,1,0,17,0,1 @ F,0,0,1,0,17,0,1 @ F,0,0,1,0,17,0,1"
       unit="px"
       method="auto"
       mode="F"
       radius="17"
       chamfer_steps="1"
       flexible="false"
       use_knot_distance="true"
       apply_no_radius="true"
       apply_with_radius="true"
       only_selected="false"
       hide_knots="false" />
    <inkscape:path-effect
       effect="fillet_chamfer"
       id="path-effect124"
       is_visible="true"
       lpeversion="1"
       satellites_param="F,0,0,1,0,8,0,1 @ F,0,0,1,0,8,0,1 @ F,0,0,1,0,8,0,1 @ F,0,0,1,0,8,0,1"
       unit="px"
       method="auto"
       mode="F"
       radius="8"
       chamfer_steps="1"
       flexible="false"
       use_knot_distance="true"
       apply_no_radius="true"
       apply_with_radius="true"
       only_selected="false"
       hide_knots="false" />
    <inkscape:path-effect
       effect="fillet_chamfer"
       id="path-effect112"
       is_visible="true"
       lpeversion="1"
       satellites_param="F,0,0,1,0,11,0,1 @ F,0,0,1,0,11,0,1 @ F,0,0,1,0,11,0,1 @ F,0,0,1,0,11,0,1"
       unit="px"
       method="auto"
       mode="F"
       radius="11"
       chamfer_steps="1"
       flexible="false"
       use_knot_distance="true"
       apply_no_radius="true"
       apply_with_radius="true"
       only_selected="false"
       hide_knots="false" />
    <inkscape:path-effect
       effect="fillet_chamfer"
       id="path-effect100"
       is_visible="true"
       lpeversion="1"
       satellites_param="F,0,0,1,0,8,0,1 @ F,0,0,1,0,8,0,1 @ F,0,0,1,0,8,0,1 @ F,0,0,1,0,8,0,1"
       unit="px"
       method="auto"
       mode="F"
       radius="8"
       chamfer_steps="1"
       flexible="false"
       use_knot_distance="true"
       apply_no_radius="true"
       apply_with_radius="true"
       only_selected="false"
       hide_knots="false" />
    <inkscape:path-effect
       effect="fillet_chamfer"
       id="path-effect77"
       is_visible="true"
       lpeversion="1"
       satellites_param="F,0,0,1,0,7,0,1 @ F,0,0,1,0,7,0,1 @ F,0,0,1,0,7,0,1 @ F,0,0,1,0,7,0,1"
       unit="px"
       method="auto"
       mode="F"
       radius="7"
       chamfer_steps="1"
       flexible="false"
       use_knot_distance="true"
       apply_no_radius="true"
       apply_with_radius="true"
       only_selected="false"
       hide_knots="false" />
    <clipPath
       clipPathUnits="userSpaceOnUse"
       id="clipPath1563">
      <circle
         style="display:inline;fill:#5f8dd3;stroke-width:0.27618"
         id="circle1565"
         cx="253.99998"
         cy="142.875"
         r="67.73333"
         d="M 321.73331,142.875 A 67.73333,67.73333 0 0 1 253.99998,210.60833 67.73333,67.73333 0 0 1 186.26665,142.875 67.73333,67.73333 0 0 1 253.99998,75.14167 67.73333,67.73333 0 0 1 321.73331,142.875 Z" />
    </clipPath>
    <clipPath
       clipPathUnits="userSpaceOnUse"
       id="clipPath1567">
      <circle
         style="display:inline;fill:#5f8dd3;stroke-width:0.27618"
         id="circle1569"
         cx="253.99998"
         cy="142.875"
         r="67.73333"
         d="M 321.73331,142.875 A 67.73333,67.73333 0 0 1 253.99998,210.60833 67.73333,67.73333 0 0 1 186.26665,142.875 67.73333,67.73333 0 0 1 253.99998,75.14167 67.73333,67.73333 0 0 1 321.73331,142.875 Z" />
    </clipPath>
    <clipPath
       clipPathUnits="userSpaceOnUse"
       id="clipPath1571">
      <circle
         style="display:inline;fill:#5f8dd3;stroke-width:0.27618"
         id="circle1573"
         cx="253.99998"
         cy="142.875"
         r="67.73333"
         d="M 321.73331,142.875 A 67.73333,67.73333 0 0 1 253.99998,210.60833 67.73333,67.73333 0 0 1 186.26665,142.875 67.73333,67.73333 0 0 1 253.99998,75.14167 67.73333,67.73333 0 0 1 321.73331,142.875 Z" />
    </clipPath>
    <clipPath
       clipPathUnits="userSpaceOnUse"
       id="clipPath1575">
      <circle
         style="display:inline;fill:#5f8dd3;stroke-width:0.27618"
         id="circle1577"
         cx="253.99998"
         cy="142.875"
         r="67.73333"
         d="M 321.73331,142.875 A 67.73333,67.73333 0 0 1 253.99998,210.60833 67.73333,67.73333 0 0 1 186.26665,142.875 67.73333,67.73333 0 0 1 253.99998,75.14167 67.73333,67.73333 0 0 1 321.73331,142.875 Z" />
    </clipPath>
    <clipPath
       clipPathUnits="userSpaceOnUse"
       id="clipPath1579">
      <circle
         style="display:inline;fill:#5f8dd3;stroke-width:0.27618"
         id="circle1581"
         cx="253.99998"
         cy="142.875"
         r="67.73333"
         d="M 321.73331,142.875 A 67.73333,67.73333 0 0 1 253.99998,210.60833 67.73333,67.73333 0 0 1 186.26665,142.875 67.73333,67.73333 0 0 1 253.99998,75.14167 67.73333,67.73333 0 0 1 321.73331,142.875 Z" />
    </clipPath>
    <clipPath
       clipPathUnits="userSpaceOnUse"
       id="clipPath1583">
      <circle
         style="display:inline;fill:#5f8dd3;stroke-width:0.27618"
         id="circle1585"
         cx="253.99998"
         cy="142.875"
         r="67.73333"
         d="M 321.73331,142.875 A 67.73333,67.73333 0 0 1 253.99998,210.60833 67.73333,67.73333 0 0 1 186.26665,142.875 67.73333,67.73333 0 0 1 253.99998,75.14167 67.73333,67.73333 0 0 1 321.73331,142.875 Z" />
    </clipPath>
    <clipPath
       clipPathUnits="userSpaceOnUse"
       id="clipPath1587">
      <circle
         style="display:inline;fill:#5f8dd3;stroke-width:0.27618"
         id="circle1589"
         cx="253.99998"
         cy="142.875"
         r="67.73333"
         d="M 321.73331,142.875 A 67.73333,67.73333 0 0 1 253.99998,210.60833 67.73333,67.73333 0 0 1 186.26665,142.875 67.73333,67.73333 0 0 1 253.99998,75.14167 67.73333,67.73333 0 0 1 321.73331,142.875 Z" />
    </clipPath>
    <clipPath
       clipPathUnits="userSpaceOnUse"
       id="clipPath1591">
      <circle
         style="display:inline;fill:#5f8dd3;stroke-width:0.27618"
         id="circle1593"
         cx="253.99998"
         cy="142.875"
         r="67.73333"
         d="M 321.73331,142.875 A 67.73333,67.73333 0 0 1 253.99998,210.60833 67.73333,67.73333 0 0 1 186.26665,142.875 67.73333,67.73333 0 0 1 253.99998,75.14167 67.73333,67.73333 0 0 1 321.73331,142.875 Z" />
    </clipPath>
    <clipPath
       clipPathUnits="userSpaceOnUse"
       id="clipPath1595">
      <circle
         style="display:inline;fill:#5f8dd3;stroke-width:0.27618"
         id="circle1597"
         cx="253.99998"
         cy="142.875"
         r="67.73333"
         d="M 321.73331,142.875 A 67.73333,67.73333 0 0 1 253.99998,210.60833 67.73333,67.73333 0 0 1 186.26665,142.875 67.73333,67.73333 0 0 1 253.99998,75.14167 67.73333,67.73333 0 0 1 321.73331,142.875 Z" />
    </clipPath>
    <clipPath
       clipPathUnits="userSpaceOnUse"
       id="clipPath1599">
      <circle
         style="display:inline;fill:#5f8dd3;stroke-width:0.27618"
         id="circle1601"
         cx="253.99998"
         cy="142.875"
         r="67.73333"
         d="M 321.73331,142.875 A 67.73333,67.73333 0 0 1 253.99998,210.60833 67.73333,67.73333 0 0 1 186.26665,142.875 67.73333,67.73333 0 0 1 253.99998,75.14167 67.73333,67.73333 0 0 1 321.73331,142.875 Z" />
    </clipPath>
    <clipPath
       clipPathUnits="userSpaceOnUse"
       id="clipPath1603">
      <circle
         style="display:inline;fill:#5f8dd3;stroke-width:0.27618"
         id="circle1605"
         cx="253.99998"
         cy="142.875"
         r="67.73333"
         d="M 321.73331,142.875 A 67.73333,67.73333 0 0 1 253.99998,210.60833 67.73333,67.73333 0 0 1 186.26665,142.875 67.73333,67.73333 0 0 1 253.99998,75.14167 67.73333,67.73333 0 0 1 321.73331,142.875 Z" />
    </clipPath>
    <clipPath
       clipPathUnits="userSpaceOnUse"
       id="clipPath1607">
      <circle
         style="display:inline;fill:#5f8dd3;stroke-width:0.27618"
         id="circle1609"
         cx="253.99998"
         cy="142.875"
         r="67.73333"
         d="M 321.73331,142.875 A 67.73333,67.73333 0 0 1 253.99998,210.60833 67.73333,67.73333 0 0 1 186.26665,142.875 67.73333,67.73333 0 0 1 253.99998,75.14167 67.73333,67.73333 0 0 1 321.73331,142.875 Z" />
    </clipPath>
    <clipPath
       clipPathUnits="userSpaceOnUse"
       id="clipPath1611">
      <circle
         style="display:inline;fill:#5f8dd3;stroke-width:0.27618"
         id="circle1613"
         cx="253.99998"
         cy="142.875"
         r="67.73333"
         d="M 321.73331,142.875 A 67.73333,67.73333 0 0 1 253.99998,210.60833 67.73333,67.73333 0 0 1 186.26665,142.875 67.73333,67.73333 0 0 1 253.99998,75.14167 67.73333,67.73333 0 0 1 321.73331,142.875 Z" />
    </clipPath>
    <clipPath
       clipPathUnits="userSpaceOnUse"
       id="clipPath1615">
      <circle
         style="display:inline;fill:#5f8dd3;stroke-width:0.27618"
         id="circle1617"
         cx="253.99998"
         cy="142.875"
         r="67.73333" />
    </clipPath>
    <clipPath
       clipPathUnits="userSpaceOnUse"
       id="clipPath1619">
      <circle
         style="display:inline;fill:#5f8dd3;stroke-width:0.27618"
         id="circle1621"
         cx="253.99998"
         cy="142.875"
         r="67.73333" />
    </clipPath>
    <clipPath
       clipPathUnits="userSpaceOnUse"
       id="clipPath1623">
      <circle
         style="display:inline;fill:#5f8dd3;stroke-width:0.27618"
         id="circle1625"
         cx="253.99998"
         cy="142.875"
         r="67.73333" />
    </clipPath>
    <clipPath
       clipPathUnits="userSpaceOnUse"
       id="clipPath1627">
      <circle
         style="display:inline;fill:#5f8dd3;stroke-width:0.27618"
         id="circle1629"
         cx="253.99998"
         cy="142.875"
         r="67.73333" />
    </clipPath>
    <clipPath
       clipPathUnits="userSpaceOnUse"
       id="clipPath1631">
      <circle
         style="display:inline;fill:#5f8dd3;stroke-width:0.27618"
         id="circle1633"
         cx="253.99998"
         cy="142.875"
         r="67.73333" />
    </clipPath>
    <clipPath
       clipPathUnits="userSpaceOnUse"
       id="clipPath1635">
      <circle
         style="display:inline;fill:#5f8dd3;stroke-width:0.27618"
         id="circle1637"
         cx="253.99998"
         cy="142.875"
         r="67.73333" />
    </clipPath>
    <clipPath
       clipPathUnits="userSpaceOnUse"
       id="clipPath1639">
      <circle
         style="display:inline;fill:#5f8dd3;stroke-width:0.27618"
         id="circle1641"
         cx="253.99998"
         cy="142.875"
         r="67.73333" />
    </clipPath>
    <clipPath
       clipPathUnits="userSpaceOnUse"
       id="clipPath1643">
      <circle
         style="display:inline;fill:#5f8dd3;stroke-width:0.27618"
         id="circle1645"
         cx="253.99998"
         cy="142.875"
         r="67.73333"
         d="M 321.73331,142.875 A 67.73333,67.73333 0 0 1 253.99998,210.60833 67.73333,67.73333 0 0 1 186.26665,142.875 67.73333,67.73333 0 0 1 253.99998,75.14167 67.73333,67.73333 0 0 1 321.73331,142.875 Z" />
    </clipPath>
    <clipPath
       clipPathUnits="userSpaceOnUse"
       id="clipPath1647">
      <circle
         style="display:inline;fill:#5f8dd3;stroke-width:0.27618"
         id="circle1649"
         cx="253.99998"
         cy="142.875"
         r="67.73333"
         d="M 321.73331,142.875 A 67.73333,67.73333 0 0 1 253.99998,210.60833 67.73333,67.73333 0 0 1 186.26665,142.875 67.73333,67.73333 0 0 1 253.99998,75.14167 67.73333,67.73333 0 0 1 321.73331,142.875 Z" />
    </clipPath>
    <clipPath
       clipPathUnits="userSpaceOnUse"
       id="clipPath1651">
      <circle
         style="display:inline;fill:#5f8dd3;stroke-width:0.27618"
         id="circle1653"
         cx="253.99998"
         cy="142.875"
         r="67.73333"
         d="M 321.73331,142.875 A 67.73333,67.73333 0 0 1 253.99998,210.60833 67.73333,67.73333 0 0 1 186.26665,142.875 67.73333,67.73333 0 0 1 253.99998,75.14167 67.73333,67.73333 0 0 1 321.73331,142.875 Z" />
    </clipPath>
    <clipPath
       clipPathUnits="userSpaceOnUse"
       id="clipPath1655">
      <circle
         style="display:inline;fill:#5f8dd3;stroke-width:0.27618"
         id="circle1657"
         cx="253.99998"
         cy="142.875"
         r="67.73333"
         d="M 321.73331,142.875 A 67.73333,67.73333 0 0 1 253.99998,210.60833 67.73333,67.73333 0 0 1 186.26665,142.875 67.73333,67.73333 0 0 1 253.99998,75.14167 67.73333,67.73333 0 0 1 321.73331,142.875 Z" />
    </clipPath>
    <clipPath
       clipPathUnits="userSpaceOnUse"
       id="clipPath1659">
      <circle
         style="display:inline;fill:#5f8dd3;stroke-width:0.27618"
         id="circle1661"
         cx="253.99998"
         cy="142.875"
         r="67.73333"
         d="M 321.73331,142.875 A 67.73333,67.73333 0 0 1 253.99998,210.60833 67.73333,67.73333 0 0 1 186.26665,142.875 67.73333,67.73333 0 0 1 253.99998,75.14167 67.73333,67.73333 0 0 1 321.73331,142.875 Z" />
    </clipPath>
    <clipPath
       clipPathUnits="userSpaceOnUse"
       id="clipPath1663">
      <circle
         style="display:inline;fill:#5f8dd3;stroke-width:0.27618"
         id="circle1665"
         cx="253.99998"
         cy="142.875"
         r="67.73333"
         d="M 321.73331,142.875 A 67.73333,67.73333 0 0 1 253.99998,210.60833 67.73333,67.73333 0 0 1 186.26665,142.875 67.73333,67.73333 0 0 1 253.99998,75.14167 67.73333,67.73333 0 0 1 321.73331,142.875 Z" />
    </clipPath>
    <clipPath
       clipPathUnits="userSpaceOnUse"
       id="clipPath1667">
      <circle
         style="display:inline;fill:#5f8dd3;stroke-width:0.27618"
         id="circle1669"
         cx="253.99998"
         cy="142.875"
         r="67.73333"
         d="M 321.73331,142.875 A 67.73333,67.73333 0 0 1 253.99998,210.60833 67.73333,67.73333 0 0 1 186.26665,142.875 67.73333,67.73333 0 0 1 253.99998,75.14167 67.73333,67.73333 0 0 1 321.73331,142.875 Z" />
    </clipPath>
    <clipPath
       clipPathUnits="userSpaceOnUse"
       id="clipPath1671">
      <circle
         style="display:inline;fill:#5f8dd3;stroke-width:0.27618"
         id="circle1673"
         cx="253.99998"
         cy="142.875"
         r="67.73333"
         d="M 321.73331,142.875 A 67.73333,67.73333 0 0 1 253.99998,210.60833 67.73333,67.73333 0 0 1 186.26665,142.875 67.73333,67.73333 0 0 1 253.99998,75.14167 67.73333,67.73333 0 0 1 321.73331,142.875 Z" />
    </clipPath>
    <clipPath
       clipPathUnits="userSpaceOnUse"
       id="clipPath1675">
      <circle
         style="display:inline;fill:#5f8dd3;stroke-width:0.27618"
         id="circle1677"
         cx="253.99998"
         cy="142.875"
         r="67.73333"
         d="M 321.73331,142.875 A 67.73333,67.73333 0 0 1 253.99998,210.60833 67.73333,67.73333 0 0 1 186.26665,142.875 67.73333,67.73333 0 0 1 253.99998,75.14167 67.73333,67.73333 0 0 1 321.73331,142.875 Z" />
    </clipPath>
    <clipPath
       clipPathUnits="userSpaceOnUse"
       id="clipPath1679">
      <circle
         style="display:inline;fill:#5f8dd3;stroke-width:0.27618"
         id="circle1681"
         cx="253.99998"
         cy="142.875"
         r="67.73333" />
    </clipPath>
  </defs>
  <sodipodi:namedview
     id="base"
     pagecolor="#ffffff"
     bordercolor="#666666"
     borderopacity="1.0"
     inkscape:pageopacity="0.0"
     inkscape:pageshadow="2"
     inkscape:zoom="0.5"
     inkscape:cx="725.11764"
     inkscape:cy="344.64554"
     inkscape:document-units="px"
     inkscape:current-layer="layer4"
     inkscape:document-rotation="0"
     showgrid="false"
     showguides="false"
     units="px"
     inkscape:window-width="1920"
     inkscape:window-height="1057"
     inkscape:window-x="-8"
     inkscape:window-y="-8"
     inkscape:window-maximized="1"
     inkscape:snap-others="true"
     inkscape:snap-global="true"
     fit-margin-top="0"
     fit-margin-left="0"
     fit-margin-right="0"
     fit-margin-bottom="0"
     inkscape:pagecheckerboard="true"
     inkscape:snap-bbox="true"
     inkscape:bbox-nodes="true" />
  <metadata
     id="metadata5">
    <rdf:RDF>
      <cc:Work
         rdf:about="">
        <dc:format>image/svg+xml</dc:format>
        <dc:type
           rdf:resource="http://purl.org/dc/dcmitype/StillImage" />
        <dc:title />
      </cc:Work>
    </rdf:RDF>
  </metadata>
  <g
     inkscape:groupmode="layer"
     id="layer4"
     inkscape:label="Text"
     style="display:inline;opacity:0.998"
     transform="translate(-110.06667,-120.80753)">
    <text
       xml:space="preserve"
       style="font-style:normal;font-variant:normal;font-weight:normal;font-stretch:normal;font-size:59.2506px;line-height:1.25;font-family:'Franklin Gothic Heavy';-inkscape-font-specification:'Franklin Gothic Heavy, ';text-align:start;text-anchor:start;display:inline;fill:#ff8080;fill-opacity:1;stroke-width:1.48127"
       x="108.70115"
       y="160.17772"
       id="text948"
       transform="scale(0.99900199,1.000999)"><tspan
         id="tspan946"
         x="108.70115"
         y="160.17772"
         style="font-style:normal;font-variant:normal;font-weight:normal;font-stretch:normal;font-family:'Franklin Gothic Heavy';-inkscape-font-specification:'Franklin Gothic Heavy, ';text-align:start;text-anchor:start;fill:#ff8080;fill-opacity:1;stroke-width:1.48127"
         sodipodi:role="line">chs</tspan></text>
    <text
       xml:space="preserve"
       style="font-style:normal;font-variant:normal;font-weight:normal;font-stretch:normal;font-size:59.2506px;line-height:1.25;font-family:'Franklin Gothic Heavy';-inkscape-font-specification:'Franklin Gothic Heavy, ';display:inline;fill:#ffffff;fill-opacity:1;stroke-width:1.48127"
       x="109.77159"
       y="205.56239"
       id="text948-7"
       transform="scale(0.99900199,1.000999)"><tspan
         x="109.77159"
         y="205.56239"
         style="font-style:normal;font-variant:normal;font-weight:normal;font-stretch:normal;font-family:'Franklin Gothic Heavy';-inkscape-font-specification:'Franklin Gothic Heavy, ';fill:#ffffff;fill-opacity:1;stroke-width:1.48127"
         sodipodi:role="line"
         id="tspan952">wOrld</tspan></text>
    <text
       xml:space="preserve"
       style="font-style:normal;font-variant:normal;font-weight:normal;font-stretch:normal;font-size:59.2506px;line-height:1.25;font-family:'Franklin Gothic Heavy';-inkscape-font-specification:'Franklin Gothic Heavy, ';text-align:start;text-anchor:start;display:inline;fill:#5f8dd3;fill-opacity:1;stroke-width:1.48127"
       x="109.97411"
       y="252.94331"
       id="text948-8"
       transform="scale(0.99900199,1.000999)"><tspan
         id="tspan946-6"
         x="109.97411"
         y="252.94331"
         style="font-style:normal;font-variant:normal;font-weight:normal;font-stretch:normal;font-family:'Franklin Gothic Heavy';-inkscape-font-specification:'Franklin Gothic Heavy, ';text-align:start;text-anchor:start;fill:#5f8dd3;fill-opacity:1;stroke-width:1.48127"
         sodipodi:role="line">fest</tspan></text>
  </g>
  <g
     inkscape:label="Water"
     inkscape:groupmode="layer"
     id="layer1"
     style="display:inline"
     transform="translate(-292.62916,-192.24503)">
    <circle
       style="fill:#5f8dd3;stroke-width:0.27618"
       id="path54"
       cx="253.99998"
       cy="142.875"
       r="67.73333"
       clip-path="url(#clipPath1679)"
       transform="matrix(0.30764907,0,0,0.30807689,278.73908,213.29585)"
       inkscape:export-xdpi="96"
       inkscape:export-ydpi="96" />
  </g>
  <g
     inkscape:groupmode="layer"
     id="layer3"
     inkscape:label="Ground"
     style="display:inline"
     transform="translate(-292.62916,-192.24503)">
    <path
       style="fill:#ff8080;stroke-width:0.264599"
       id="rect21-8"
       width="25.135416"
       height="13.229166"
       x="265.17917"
       y="70.03714"
       inkscape:path-effect="#path-effect77"
       d="m 272.17917,70.03714 h 11.13541 a 7,7 45 0 1 7,7 6.6258022,6.6258022 138.33473 0 1 -7,6.229166 h -11.13541 a 7,7 45 0 1 -7,-7 6.6258022,6.6258022 138.33473 0 1 7,-6.229166 z"
       sodipodi:type="rect"
       clip-path="url(#clipPath1675)"
       transform="matrix(0.30764907,0,0,0.30807689,278.73908,213.29585)"
       inkscape:export-xdpi="96"
       inkscape:export-ydpi="96" />
    <path
       style="fill:#ff8080;stroke-width:0.353455"
       id="rect21-8-5"
       width="35.582069"
       height="16.675549"
       x="252.77765"
       y="91.657578"
       inkscape:path-effect="#path-effect100"
       sodipodi:type="rect"
       d="m 260.77765,91.657578 h 19.58207 a 8,8 45 0 1 8,8 v 0.675552 a 8,8 135 0 1 -8,8 h -19.58207 a 8,8 45 0 1 -8,-8 v -0.675552 a 8,8 135 0 1 8,-8 z"
       clip-path="url(#clipPath1671)"
       transform="matrix(0.30764907,0,0,0.30807689,278.73908,213.29585)"
       inkscape:export-xdpi="96"
       inkscape:export-ydpi="96" />
    <path
       style="fill:#ff8080;stroke-width:0.516712"
       id="rect21-8-0"
       width="61.011421"
       height="20.783947"
       x="179.11824"
       y="87.533485"
       inkscape:path-effect="#path-effect112"
       sodipodi:type="rect"
       d="m 190.11824,87.533485 39.01142,0 a 11,11 45 0 1 11,11 10.409746,10.409746 138.34852 0 1 -11,9.783945 h -39.01142 a 11,11 45 0 1 -11,-10.999998 10.409746,10.409746 138.34852 0 1 11,-9.783947 z"
       clip-path="url(#clipPath1667)"
       transform="matrix(0.30764907,0,0,0.30807689,278.73908,213.29585)"
       inkscape:export-xdpi="96"
       inkscape:export-ydpi="96" />
    <path
       style="fill:#ff8080;stroke-width:0.337803"
       id="rect21-8-54"
       width="35.169701"
       height="15.409927"
       x="194.31372"
       y="113.70182"
       inkscape:path-effect="#path-effect124"
       sodipodi:type="rect"
       d="m 202.31372,113.70182 h 19.1697 a 8,8 45 0 1 8,8 7.7106103,7.7106103 137.19288 0 1 -8,7.40993 h -19.1697 a 8,8 45 0 1 -8,-8 7.7106103,7.7106103 137.19288 0 1 8,-7.40993 z"
       clip-path="url(#clipPath1663)"
       transform="matrix(0.30764907,0,0,0.30807689,278.73908,213.29585)"
       inkscape:export-xdpi="96"
       inkscape:export-ydpi="96" />
    <path
       style="fill:#ff8080;stroke-width:0.700017"
       id="rect21-8-50"
       width="71.91626"
       height="32.361694"
       x="263.28445"
       y="117.90046"
       inkscape:path-effect="#path-effect136"
       sodipodi:type="rect"
       d="m 280.28445,117.90046 h 37.91626 a 17,17 45 0 1 17,17 16.201569,16.201569 137.89812 0 1 -17,15.36169 h -37.91626 a 17,17 45 0 1 -17,-17 16.201569,16.201569 137.89812 0 1 17,-15.36169 z"
       clip-path="url(#clipPath1659)"
       transform="matrix(0.30764907,0,0,0.30807689,278.73908,213.29585)"
       inkscape:export-xdpi="96"
       inkscape:export-ydpi="96" />
    <path
       style="fill:#ff8080;stroke-width:0.414553"
       id="rect21-8-1"
       width="43.966881"
       height="18.564243"
       x="287.82565"
       y="158.59947"
       inkscape:path-effect="#path-effect148"
       sodipodi:type="rect"
       d="m 297.82565,158.59947 h 23.96688 a 10,10 45 0 1 10,10 9.3098406,9.3098406 139.42245 0 1 -10,8.56425 h -23.96688 a 10,10 45 0 1 -10,-10 9.3098406,9.3098406 139.42245 0 1 10,-8.56425 z"
       clip-path="url(#clipPath1655)"
       transform="matrix(0.30764907,0,0,0.30807689,278.73908,213.29585)"
       inkscape:export-xdpi="96"
       inkscape:export-ydpi="96" />
    <path
       style="fill:#ff8080;stroke-width:0.321369"
       id="rect21-8-3"
       width="33.795143"
       height="14.514257"
       x="171.46684"
       y="141.00871"
       inkscape:path-effect="#path-effect160"
       sodipodi:type="rect"
       d="m 179.46684,141.00871 h 17.79515 a 8,8 45 0 1 8,8 7.2950514,7.2950514 140.84469 0 1 -8,6.51426 h -17.79515 a 8,8 45 0 1 -8,-8 7.2950514,7.2950514 140.84469 0 1 8,-6.51426 z"
       clip-path="url(#clipPath1651)"
       transform="matrix(0.30764907,0,0,0.30807689,278.73908,213.29585)"
       inkscape:export-xdpi="96"
       inkscape:export-ydpi="96" />
    <path
       style="fill:#ff8080;stroke-width:0.524764"
       id="rect21-8-04"
       width="51.297867"
       height="25.495949"
       x="213.14931"
       y="160.6747"
       inkscape:path-effect="#path-effect172"
       sodipodi:type="rect"
       d="m 226.14931,160.6747 h 25.29786 a 13,13 45 0 1 13,13 12.750465,12.750465 136.13258 0 1 -13,12.49595 h -25.29786 a 13,13 45 0 1 -13,-13 12.750465,12.750465 136.13258 0 1 13,-12.49595 z"
       clip-path="url(#clipPath1647)"
       transform="matrix(0.30764907,0,0,0.30807689,278.73908,213.29585)"
       inkscape:export-xdpi="96"
       inkscape:export-ydpi="96" />
    <path
       style="fill:#ff8080;stroke-width:0.486901"
       id="rect21-8-05"
       width="85.11203"
       height="13.229166"
       x="181.57539"
       y="191.36403"
       inkscape:path-effect="#path-effect184"
       sodipodi:type="rect"
       d="m 188.57539,191.36403 h 71.11203 a 7,7 45 0 1 7,7 6.6258022,6.6258022 138.33473 0 1 -7,6.22916 h -71.11203 a 7,7 45 0 1 -7,-7 6.6258022,6.6258022 138.33473 0 1 7,-6.22916 z"
       clip-path="url(#clipPath1643)"
       transform="matrix(0.30764907,0,0,0.30807689,278.73908,213.29585)"
       inkscape:export-xdpi="96"
       inkscape:export-ydpi="96" />
    <rect
       style="fill:#ff8080;fill-opacity:1;stroke:#ff8080;stroke-width:0.336341;stroke-opacity:1"
       id="rect1316"
       width="14.941133"
       height="13.682132"
       x="205.44017"
       y="103.99476"
       clip-path="url(#clipPath1639)"
       transform="matrix(0.30764907,0,0,0.30807689,278.73908,213.29585)"
       inkscape:export-xdpi="96"
       inkscape:export-ydpi="96" />
    <path
       style="fill:#ff8080;fill-opacity:1;stroke:#ff8080;stroke-width:0.366391;stroke-opacity:1"
       id="rect1318"
       width="19.895601"
       height="9.5600147"
       x="231.41624"
       y="184.63864"
       sodipodi:type="rect"
       d="m 231.41624,184.63864 h 19.89561 v 9.56002 h -19.89561 z"
       clip-path="url(#clipPath1635)"
       transform="matrix(0.30764907,0,0,0.30807689,278.73908,213.29585)"
       inkscape:export-xdpi="96"
       inkscape:export-ydpi="96" />
    <ellipse
       style="fill:#5f8dd3;fill-opacity:1;stroke:#5f8dd3;stroke-width:0.233115;stroke-opacity:1"
       id="path1322"
       cx="205.02562"
       cy="111.05885"
       rx="2.5028174"
       ry="2.5689633"
       clip-path="url(#clipPath1631)"
       transform="matrix(0.30764907,0,0,0.30807689,278.73908,213.29585)"
       inkscape:export-xdpi="96"
       inkscape:export-ydpi="96" />
    <ellipse
       style="display:inline;fill:#5f8dd3;fill-opacity:1;stroke:#5f8dd3;stroke-width:0.233688;stroke-opacity:1"
       id="path1322-1"
       cx="219.70999"
       cy="110.99271"
       rx="2.5025308"
       ry="2.5819056"
       clip-path="url(#clipPath1627)"
       transform="matrix(0.30764907,0,0,0.30807689,278.73908,213.29585)"
       inkscape:export-xdpi="96"
       inkscape:export-ydpi="96" />
    <ellipse
       style="display:inline;fill:#5f8dd3;fill-opacity:1;stroke:#5f8dd3;stroke-width:0.228475;stroke-opacity:1"
       id="path1322-19"
       cx="230.95479"
       cy="188.76697"
       rx="2.5051367"
       ry="2.4654498"
       clip-path="url(#clipPath1623)"
       transform="matrix(0.30764907,0,0,0.30807689,278.73908,213.29585)"
       inkscape:export-xdpi="96"
       inkscape:export-ydpi="96" />
    <ellipse
       style="display:inline;fill:#5f8dd3;fill-opacity:1;stroke:#5f8dd3;stroke-width:0.228475;stroke-opacity:1"
       id="path1322-19-1"
       cx="251.67172"
       cy="188.76697"
       rx="2.5051367"
       ry="2.4654498"
       clip-path="url(#clipPath1619)"
       transform="matrix(0.30764907,0,0,0.30807689,278.73908,213.29585)"
       inkscape:export-xdpi="96"
       inkscape:export-ydpi="96" />
    <ellipse
       style="fill:#ff8080;fill-opacity:1;stroke:#ff8080;stroke-width:0.2411;stroke-opacity:1"
       id="path1379"
       cx="300.29028"
       cy="127.1222"
       rx="2.5654745"
       ry="2.4116147"
       clip-path="url(#clipPath1615)"
       transform="matrix(0.30764907,0,0,0.30807689,278.73908,213.29585)"
       inkscape:export-xdpi="96"
       inkscape:export-ydpi="96" />
  </g>
  <g
     inkscape:groupmode="layer"
     id="layer2"
     inkscape:label="Clouds"
     style="display:inline"
     transform="translate(-292.62916,-192.24503)">
    <path
       style="display:inline;fill:#ffffff;stroke-width:0.365204"
       id="rect21-8-39-7"
       width="35.307156"
       height="17.941168"
       x="292.63855"
       y="129.25317"
       inkscape:path-effect="#path-effect346"
       sodipodi:type="rect"
       d="m 301.63855,129.25317 h 17.30716 a 9,9 45 0 1 9,9 8.9706321,8.9706321 135.18788 0 1 -9,8.94117 h -17.30716 a 9,9 45 0 1 -9,-9 8.9706321,8.9706321 135.18788 0 1 9,-8.94117 z"
       clip-path="url(#clipPath1611)"
       transform="matrix(0.30988592,0,0,0.30807689,278.08456,213.29585)"
       inkscape:export-xdpi="96"
       inkscape:export-ydpi="96" />
    <path
       style="fill:#ffffff;stroke-width:0.314952"
       id="rect21-8-39"
       width="41.401039"
       height="11.379413"
       x="210.82362"
       y="110.53671"
       inkscape:path-effect="#path-effect196"
       sodipodi:type="rect"
       d="m 216.82362,110.53671 h 29.40104 a 6,6 45 0 1 6,6 5.6981611,5.6981611 138.12159 0 1 -6,5.37942 h -29.40104 a 6,6 45 0 1 -6,-6 5.6981611,5.6981611 138.12159 0 1 6,-5.37942 z"
       clip-path="url(#clipPath1607)"
       transform="matrix(0.30764907,0,0,0.30807689,278.73908,213.29585)"
       inkscape:export-xdpi="96"
       inkscape:export-ydpi="96" />
    <path
       style="fill:#ffffff;stroke-width:0.281831"
       id="rect21-8-39-2"
       width="29.615393"
       height="12.738083"
       x="283.48053"
       y="161.01456"
       inkscape:path-effect="#path-effect220"
       sodipodi:type="rect"
       d="m 290.48053,161.01456 h 15.61539 a 7,7 45 0 1 7,7 6.4002186,6.4002186 140.65763 0 1 -7,5.73808 h -15.61539 a 7,7 45 0 1 -7,-7 6.4002186,6.4002186 140.65763 0 1 7,-5.73808 z"
       clip-path="url(#clipPath1603)"
       transform="matrix(0.30764907,0,0,0.30807689,278.73908,213.29585)"
       inkscape:export-xdpi="96"
       inkscape:export-ydpi="96" />
    <path
       style="display:inline;fill:#ffffff;stroke-width:0.264599"
       id="rect21-8-39-6"
       width="25.135416"
       height="13.229166"
       x="263.10147"
       y="85.37307"
       inkscape:path-effect="#path-effect358"
       sodipodi:type="rect"
       d="m 269.10147,85.37307 h 13.13542 a 6,6 45 0 1 6,6 v 1.229166 a 6,6 135 0 1 -6,6 h -13.13542 a 6,6 45 0 1 -6,-6 V 91.37307 a 6,6 135 0 1 6,-6 z"
       clip-path="url(#clipPath1599)"
       transform="matrix(0.30764907,0,0,0.30807689,278.73908,213.29585)"
       inkscape:export-xdpi="96"
       inkscape:export-ydpi="96" />
    <path
       style="display:inline;fill:#ffffff;stroke-width:0.264599"
       id="rect21-8-39-4"
       width="25.135416"
       height="13.229166"
       x="197.78084"
       y="185.2455"
       inkscape:path-effect="#path-effect382"
       sodipodi:type="rect"
       d="m 204.78084,185.2455 h 11.13541 a 7,7 45 0 1 7,7 6.6258022,6.6258022 138.33473 0 1 -7,6.22916 l -11.13541,0 a 7,7 45 0 1 -7,-7 6.6258022,6.6258022 138.33473 0 1 7,-6.22916 z"
       clip-path="url(#clipPath1595)"
       transform="matrix(0.30764907,0,0,0.30807689,278.59543,213.29585)"
       inkscape:export-xdpi="96"
       inkscape:export-ydpi="96" />
    <path
       style="display:inline;fill:#ffffff;stroke-width:0.442996"
       id="rect21-8-39-65"
       width="63.439808"
       height="14.691975"
       x="212.73456"
       y="154.6978"
       inkscape:path-effect="#path-effect394"
       sodipodi:type="rect"
       d="m 220.73456,154.6978 h 47.43981 a 8,8 45 0 1 8,8 7.3750432,7.3750432 140.08763 0 1 -8,6.69197 l -47.43981,0 a 8,8 45 0 1 -8,-8 7.3750432,7.3750432 140.08763 0 1 8,-6.69197 z"
       clip-path="url(#clipPath1591)"
       transform="matrix(0.30764907,0,0,0.30807689,278.73908,213.29585)"
       inkscape:export-xdpi="96"
       inkscape:export-ydpi="96" />
    <path
       style="display:inline;fill:#ffffff;stroke-width:0.137527"
       id="rect21-8-39-2-4"
       width="14.495237"
       height="6.197216"
       x="216.56976"
       y="97.351311"
       inkscape:path-effect="#path-effect418"
       sodipodi:type="rect"
       d="m 219.56976,97.351311 h 8.49524 a 3,3 45 0 1 3,2.999999 v 0.19722 a 3,3 135 0 1 -3,3 h -8.49524 a 3,3 45 0 1 -3,-3 v -0.19722 a 3,3 135 0 1 3,-2.999999 z"
       clip-path="url(#clipPath1587)"
       transform="matrix(0.30764907,0,0,0.30807689,278.73908,213.29585)"
       inkscape:export-xdpi="96"
       inkscape:export-ydpi="96" />
    <path
       style="display:inline;fill:#ffffff;stroke-width:0.137527"
       id="rect21-8-39-2-4-5"
       width="14.495237"
       height="6.197216"
       x="296.35666"
       y="118.57381"
       inkscape:path-effect="#path-effect442"
       sodipodi:type="rect"
       d="m 299.35666,118.57381 h 8.49524 a 3,3 45 0 1 3,3 v 0.19721 a 3,3 135 0 1 -3,3 h -8.49524 a 3,3 45 0 1 -3,-3 v -0.19721 a 3,3 135 0 1 3,-3 z"
       clip-path="url(#clipPath1583)"
       transform="matrix(0.30764907,0,0,0.30807689,278.73908,213.29585)"
       inkscape:export-xdpi="96"
       inkscape:export-ydpi="96" />
    <path
       style="display:inline;fill:#ffffff;stroke-width:0.208961"
       id="rect21-8-39-2-4-0"
       width="33.464161"
       height="6.197216"
       x="245.89322"
       y="175.27464"
       inkscape:path-effect="#path-effect454"
       sodipodi:type="rect"
       d="m 248.89322,175.27464 h 27.46416 a 3,3 45 0 1 3,3 v 0.19722 a 3,3 135 0 1 -3,3 h -27.46416 a 3,3 45 0 1 -3,-3 v -0.19722 a 3,3 135 0 1 3,-3 z"
       clip-path="url(#clipPath1579)"
       transform="matrix(0.30764907,0,0,0.30807689,278.73908,213.29585)"
       inkscape:export-xdpi="96"
       inkscape:export-ydpi="96" />
    <path
       style="display:inline;fill:#ffffff;stroke-width:0.255781"
       id="rect21-8-39-2-4-3"
       width="45.422829"
       height="6.8408518"
       x="196.21237"
       y="140.77834"
       inkscape:path-effect="#path-effect466"
       sodipodi:type="rect"
       d="m 199.21237,140.77834 h 39.42283 a 3,3 45 0 1 3,3 l 0,0.84085 a 3,3 135 0 1 -3,3 l -39.42283,0 a 3,3 45 0 1 -3,-3 v -0.84085 a 3,3 135 0 1 3,-3 z"
       clip-path="url(#clipPath1575)"
       transform="matrix(0.30764907,0,0,0.30807689,278.73908,213.29585)"
       inkscape:export-xdpi="96"
       inkscape:export-ydpi="96" />
    <path
       style="fill:#ffffff;fill-opacity:1;stroke:#ffffff;stroke-width:0.329681px;stroke-linecap:butt;stroke-linejoin:miter;stroke-opacity:1"
       d="m 298.3471,130.30817 c -0.0138,-0.0221 -0.0281,-0.045 0.61706,-0.0565 0.64518,-0.0114 1.94948,-0.0114 2.60147,-0.98562 0.65199,-0.97418 0.65199,-2.9228 0.011,-3.89731 -0.64097,-0.97451 -1.92324,-0.97451 -2.56457,-1.74274 -0.64132,-0.76822 -0.64132,-2.30301 1.19666,-3.07107 1.83799,-0.76805 5.51345,-0.76805 7.35106,-0.002 1.83761,0.76638 1.83761,2.29875 1.50864,3.0648 -0.32897,0.76606 -0.98723,0.76606 -1.31654,1.7174 -0.32931,0.95135 -0.32931,2.85367 0.39155,3.80469 0.72086,0.95103 2.16218,0.95103 3.60317,0.95103"
       id="path1485"
       inkscape:path-effect="#path-effect1487"
       inkscape:original-d="m 298.3471,130.30817 c -0.0137,-0.0222 -0.028,-0.0451 -0.0424,-0.0679 1.30464,3.2e-4 2.60894,3.2e-4 3.91292,0 3.5e-4,-1.94836 3.5e-4,-3.89698 0,-5.846 -1.28195,3.3e-4 -2.56422,3.2e-4 -3.84687,0 3.4e-4,-1.53645 3.4e-4,-3.07124 0,-4.60735 3.67597,3.3e-4 7.35143,3.3e-4 11.02665,0 3.3e-4,1.53276 3.3e-4,3.06513 0,4.59724 -0.65794,2.9e-4 -1.3162,2.9e-4 -1.97482,0 3.5e-4,1.90269 3.5e-4,3.80501 0,5.70706 1.44172,3.2e-4 2.88304,3.2e-4 4.32403,0"
       clip-path="url(#clipPath1571)"
       transform="matrix(0.30764907,0,0,0.30807689,278.73908,213.29585)"
       inkscape:export-xdpi="96"
       inkscape:export-ydpi="96" />
    <path
       style="display:inline;fill:#ffffff;fill-opacity:1;stroke:#ffffff;stroke-width:0.37684px;stroke-linecap:butt;stroke-linejoin:miter;stroke-opacity:1"
       d="m 223.08561,155.24603 c -0.0138,-0.029 -0.0281,-0.059 0.61558,-0.074 0.64365,-0.0149 1.94483,-0.0149 2.59526,-1.2908 0.65044,-1.27586 0.65044,-3.82792 0.011,-5.10422 -0.63944,-1.27629 -1.91865,-1.27629 -2.55845,-2.28241 -0.63979,-1.00613 -0.63979,-3.01621 1.19381,-4.02212 1.8336,-1.0059 5.50028,-1.0059 7.3335,-0.002 1.83322,1.00371 1.83322,3.01062 1.50503,4.0139 -0.32818,1.00329 -0.98487,1.00329 -1.31339,2.24924 -0.32852,1.24596 -0.32852,3.73739 0.39061,4.98292 0.71914,1.24554 2.15702,1.24554 3.59457,1.24554"
       id="path1485-7"
       inkscape:path-effect="#path-effect1510"
       inkscape:original-d="m 223.08561,155.24603 c -0.0137,-0.0291 -0.0279,-0.0591 -0.0423,-0.0889 1.30153,4.2e-4 2.60271,4.2e-4 3.90358,0 3.5e-4,-2.55172 3.5e-4,-5.10378 0,-7.65637 -1.27889,4.3e-4 -2.5581,4.2e-4 -3.83769,0 3.4e-4,-2.01225 3.4e-4,-4.02233 0,-6.03414 3.6672,4.3e-4 7.33388,4.3e-4 11.00032,0 3.3e-4,2.00742 3.3e-4,4.01433 0,6.0209 -0.65637,3.8e-4 -1.31306,3.8e-4 -1.9701,0 3.5e-4,2.49191 3.5e-4,4.98334 0,7.47441 1.43827,4.2e-4 2.87615,4.2e-4 4.3137,0"
       clip-path="url(#clipPath1567)"
       transform="matrix(0.30764907,0,0,0.30807689,278.73908,213.29585)"
       inkscape:export-xdpi="96"
       inkscape:export-ydpi="96" />
    <path
       style="display:inline;fill:#ffffff;fill-opacity:1;stroke:#ffffff;stroke-width:0.37684px;stroke-linecap:butt;stroke-linejoin:miter;stroke-opacity:1"
       d="m 255.7531,176.25388 c -0.0138,-0.029 -0.0281,-0.059 0.61558,-0.074 0.64365,-0.0149 1.94483,-0.0149 2.59526,-1.2908 0.65044,-1.27586 0.65044,-3.82792 0.011,-5.10422 -0.63944,-1.27629 -1.91865,-1.27629 -2.55845,-2.28241 -0.63979,-1.00613 -0.63979,-3.01621 1.19381,-4.02212 1.8336,-1.0059 5.50028,-1.0059 7.3335,-0.002 1.83322,1.00371 1.83322,3.01062 1.50503,4.0139 -0.32818,1.00329 -0.98487,1.00329 -1.31339,2.24925 -0.32852,1.24595 -0.32852,3.73738 0.39061,4.98291 0.71914,1.24554 2.15702,1.24554 3.59457,1.24554"
       id="path1485-7-0"
       inkscape:path-effect="#path-effect1534"
       inkscape:original-d="m 255.7531,176.25388 c -0.0137,-0.0291 -0.0279,-0.0591 -0.0423,-0.0889 1.30153,4.2e-4 2.60271,4.2e-4 3.90358,0 3.5e-4,-2.55172 3.5e-4,-5.10378 0,-7.65637 -1.27889,4.3e-4 -2.5581,4.2e-4 -3.83769,0 3.4e-4,-2.01225 3.4e-4,-4.02233 0,-6.03414 3.6672,4.3e-4 7.33388,4.3e-4 11.00032,0 3.3e-4,2.00742 3.3e-4,4.01433 0,6.0209 -0.65637,3.8e-4 -1.31306,3.8e-4 -1.9701,0 3.5e-4,2.49191 3.5e-4,4.98334 0,7.47441 1.43827,4.2e-4 2.87615,4.2e-4 4.3137,0"
       clip-path="url(#clipPath1563)"
       transform="matrix(0.30764907,0,0,0.30807689,278.73908,213.29585)"
       inkscape:export-xdpi="96"
       inkscape:export-ydpi="96" />
  </g>
  <g
     inkscape:groupmode="layer"
     id="layer5"
     inkscape:label="Shadow"
     style="display:inline"
     transform="translate(-292.62916,-192.24503)">
    <circle
       style="opacity:0.2;fill:#000000;fill-opacity:1;stroke:#ffffff;stroke-width:0.074569;stroke-opacity:1"
       id="path1684"
       sodipodi:type="arc"
       sodipodi:cx="257.3591"
       sodipodi:cy="-356.94604"
       sodipodi:rx="20.852982"
       sodipodi:ry="20.864708"
       sodipodi:start="3.1415927"
       sodipodi:end="0"
       sodipodi:open="true"
       sodipodi:arc-type="arc"
       d="m 236.50612,-356.94604 a 20.852982,20.864708 0 0 1 20.85298,-20.86471 20.852982,20.864708 0 0 1 20.85298,20.86471"
       transform="rotate(90)"
       inkscape:export-xdpi="96"
       inkscape:export-ydpi="96" />
  </g>
</svg>
